<?xml version="1.0" encoding="UTF-8"?>
<!DOCTYPE svg PUBLIC "-//W3C//DTD SVG 1.1//EN" "http://www.w3.org/Graphics/SVG/1.1/DTD/svg11.dtd">
<!-- Creator: CorelDRAW -->
<svg xmlns="http://www.w3.org/2000/svg" xml:space="preserve" width="1716px" height="1297px" shape-rendering="geometricPrecision" text-rendering="geometricPrecision" image-rendering="optimizeQuality" fill-rule="evenodd" clip-rule="evenodd"
viewBox="0 0 1813.65 1370.54"
 xmlns:xlink="http://www.w3.org/1999/xlink">
 <g id="Ebene_x0020_1">
  <metadata id="CorelCorpID_0Corel-Layer"/>
  <path fill="#DA251D" d="M453.411 227.853l-453.411 0 0 880.483 453.411 0 1360.24 0 0 -880.483 -1360.24 0zm990.413 739.654c-90.458,-1.14569 -168.316,-9.15675 -249.613,-38.9284 -75.5691,18.321 -146.549,30.921 -234.712,33.2012 -60.6876,0 -115.649,-36.6357 -115.649,-122.515l0 -180.909 -90.4493 0 0 303.423 -249.611 0 0 -12.5938c-17.1741,2.29512 -33.1999,4.58399 -50.3777,6.87786 -20.6074,2.28388 -41.2172,3.43581 -64.121,4.58399 -124.799,3.42957 -222.126,-77.8692 -222.126,-172.896 0,-96.1752 103.057,-174.044 229.006,-174.044l57.2406 0 50.3777 0 0 -237.017 249.611 0 0 237.017 90.4493 0 0 -81.2988 249.61 -116.783 0 198.081 58.3863 0 -1.13445 44.6493 -57.2518 0 0 270.222c34.3469,1.14693 68.7025,-5.71595 88.1579,-9.16424l4.58649 -11.4456c44.6618,20.6099 90.4543,22.905 106.485,20.6099 69.8369,-8.01481 106.489,-40.0703 35.4851,-112.204l-66.4073 -66.4073c-40.0678,-43.5173 4.58399,-95.0407 75.5691,-121.38 57.2593,-20.6124 136.257,-21.7443 195.8,-10.2937 35.4838,5.72718 65.2554,19.4554 93.8813,36.6332 -2.28638,6.87786 -2.28638,6.88035 -5.71844,13.7395 -19.4692,-8.01356 -53.8135,-14.8889 -68.7025,-12.5938 -34.3543,5.73217 -37.7839,35.5038 -22.89,50.3815l77.8492 80.1518c80.1531,82.4282 12.5938,184.338 -163.731,180.901z"/>
  <path fill="#DA251D" d="M453.411 877.046c13.742,6.8841 30.9173,12.6 50.3777,12.6l0 -231.29c-18.3098,0 -35.4838,5.73217 -50.3777,16.0446 -61.8271,42.3654 -72.1345,162.58 0,202.645z"/>
  <path fill="#1F1A17" d="M144.274 186.626c13.7308,0 26.3246,-1.1382 36.6332,-2.28638 18.326,-1.14943 33.2062,-4.58149 45.8,-9.15925 21.7555,-6.87037 37.7839,-17.1803 49.2295,-30.9061 11.4581,-13.7482 17.1741,-29.7716 17.1741,-48.1001 0,-18.326 -5.71595,-34.3494 -17.1741,-48.0926 -11.4456,-13.7345 -27.474,-24.0419 -49.2295,-30.9061 -12.5938,-4.58399 -27.474,-6.87786 -45.8,-9.15925 -10.3087,-1.15068 -22.9025,-2.30011 -36.6332,-2.30011 -9.16174,-1.13695 -19.4754,-1.13445 -30.9198,-1.13445l-111.068 -0.00249605 0 183.192 111.068 0c11.4444,0 21.758,0.00249605 30.9198,-1.14569zm-60.6889 -36.6357l0 -107.627 28.6197 0c11.4594,0 22.9075,1.1382 32.0692,2.28638 14.8802,2.29137 27.474,5.72968 36.6332,11.4456 16.0309,9.16174 24.0419,22.9037 24.0419,40.079 0,17.1803 -8.01106,30.9248 -24.0419,40.0703 -9.15925,5.72968 -21.7531,9.16174 -36.6332,11.4594 -9.16174,1.13695 -20.6099,2.28638 -32.0692,2.28638l-28.6197 0z"/>
  <polygon fill="#1F1A17" points="432.803,4.579 350.37,4.579 350.37,187.771 432.803,187.771 "/>
  <path fill="#1F1A17" d="M528.98 166.016c25.1901,18.3197 59.542,26.3383 103.056,26.3383 22.8912,-0.00249605 42.3654,-2.28513 57.2406,-6.86663 14.8939,-5.73217 27.4902,-12.5938 35.5038,-24.0532l5.7147 26.337 57.2593 0 0 -88.1654 -129.379 0 0 28.6222 49.2295 0c-3.43456,9.16798 -10.3124,16.0458 -19.4717,21.7618 -10.3024,4.58025 -22.8962,6.87786 -37.7852,6.87786 -22.895,0 -40.0703,-4.58149 -52.6641,-16.0433 -12.5963,-11.4444 -19.4604,-26.3221 -19.4604,-45.7937 0,-18.3123 6.86413,-33.2062 19.4604,-43.5011 12.5938,-10.3174 29.7691,-14.8939 53.8135,-14.8939 14.8877,0 27.4852,2.29761 36.6357,6.86538 10.3074,4.58025 16.0371,11.4581 19.4717,20.6236l80.1493 0c-4.58274,-19.4754 -19.4742,-35.5038 -44.6618,-46.9494 -25.1914,-11.4618 -57.2456,-17.1753 -96.1789,-17.1753 -46.9457,-0.00249605 -84.7308,9.16549 -113.353,26.3395 -28.6222,17.1616 -42.3654,40.0653 -42.3654,69.8344 0,29.7741 12.5938,52.6666 37.7852,69.8419z"/>
  <polygon fill="#1F1A17" points="941.176,4.579 857.588,4.579 857.588,187.771 941.176,187.771 "/>
  <polygon fill="#1F1A17" points="1074,187.771 1155.28,187.771 1155.28,42.3629 1241.16,42.3629 1241.16,4.579 988.119,4.579 988.119,42.3629 1074,42.3629 "/>
  <path fill="#1F1A17" d="M1320.16 187.771l17.1753 -35.4876 56.1074 0 57.2456 0 17.1753 35.4876 87.0247 0 -109.918 -183.192 -51.5272 0 -49.232 0 -111.07 183.192 87.0197 0zm72.132 -138.544l1.15068 0 2.28388 0 34.3518 66.4048 -36.6357 0 -35.4975 0 34.3469 -66.4048z"/>
  <polygon fill="#1F1A17" points="1811.37,149.99 1677.39,149.99 1677.39,4.579 1594.96,4.579 1594.96,187.771 1811.37,187.771 "/>
  <path fill="#1F1A17" d="M140.824 1284.68c-2.28014,-4.58149 -6.86163,-8.01356 -11.4444,-12.5913 -2.28139,-2.30011 -6.86163,-6.87786 -13.7395,-11.4643 -8.01606,-5.71595 -17.1616,-12.5938 -28.6259,-20.6049 -2.28139,-0.00249605 -3.42957,-1.13695 -5.71595,-3.43456 -13.7457,-8.01855 -20.6036,-17.1753 -20.6036,-27.4715 0,-5.73217 1.12946,-10.3124 3.42957,-12.5938 3.42832,-2.30011 6.86413,-3.44829 13.7308,-3.44829 5.72968,0 9.15925,1.14818 11.4594,4.57775 2.28014,2.29761 3.42957,8.01606 3.42957,17.1803l0 6.87786 51.5296 0c0,-1.15068 1.13445,-1.14818 1.13445,-2.29761 0,-4.58025 0,-8.01481 0,-10.2962 0,-18.326 -4.58399,-32.068 -14.8802,-41.2335 -10.3099,-8.01855 -27.4852,-12.5938 -50.3777,-12.5938 -25.1914,-0.00249605 -44.6468,3.44954 -56.1111,12.5938 -11.4444,8.01356 -17.1741,20.6099 -17.1741,40.0853 0,5.72968 1.15068,11.4444 1.15068,16.0234 1.14943,3.43206 2.28139,6.86663 3.42957,9.16424 1.14943,3.42957 2.30011,5.72968 4.58399,8.01231 2.29387,2.28388 6.86163,6.86538 11.4456,10.2999 3.44579,3.4433 8.02854,6.87786 13.7445,11.4594 5.72968,3.42957 16.0259,10.2962 29.7691,19.4604 9.16174,5.72968 16.0259,11.4456 18.326,16.0234 3.42957,3.44579 4.57775,10.3162 4.57775,17.1753 0,6.87786 -1.14818,10.3149 -4.57775,13.7445 -2.30011,2.28638 -6.8816,3.43581 -12.5963,3.43581 -5.72968,0 -10.3087,-2.28638 -12.5938,-5.71595 -3.42957,-2.30011 -4.58149,-9.16424 -4.58149,-17.1753 0,-1.15068 0,-2.30011 0,-3.44829 0,-2.28638 0,-3.43456 0,-4.56777l-51.5272 -0.00249605c0,1.1357 0,2.28388 0,4.57026 0,4.58025 -1.15068,9.15925 -1.15068,11.4594 0,18.3098 5.72968,32.0542 17.1741,40.0703 11.4643,8.00732 29.7741,12.5938 54.9655,12.5938 25.1839,-0.00249605 42.3642,-4.58399 52.6716,-12.5938 10.2974,-6.87037 14.8802,-21.7605 14.8802,-41.2197 0,-5.72968 0,-10.3099 0,-13.7445 0,-3.42957 0,-5.71096 -1.14818,-6.86163 -1.13445,-4.58399 -2.28638,-8.01356 -4.58399,-11.4481z"/>
  <path fill="#1F1A17" d="M321.75 1307.57l0 2.29761c0,10.2999 -1.14818,17.1778 -3.44829,20.6074 -2.28638,2.28638 -5.71595,3.43456 -11.4456,3.43456 -6.86413,-0.00249605 -10.3137,-1.14818 -12.5938,-3.43456 -2.28638,-3.43206 -3.43206,-10.3074 -3.43206,-20.6049l0 -151.139 -52.6791 0 0 163.728c0,17.1803 5.72968,29.7766 16.0458,36.6407 9.14552,8.00732 27.469,11.4456 52.6591,11.4456 24.0394,-0.00249605 42.3654,-3.43456 51.5296,-11.4456 10.2937,-6.86413 16.0234,-19.4604 16.0234,-36.6382l0 -163.731 -52.6591 0 0 148.839z"/>
  <path fill="#1F1A17" d="M613.712 1361.38c-1.14818,-1.1357 -2.28513,-3.42957 -2.28513,-4.56777l0 -61.8371c0,-12.5938 -3.42957,-20.6099 -10.3087,-27.474 -6.86663,-5.73217 -17.1803,-9.16174 -30.9248,-10.3099 11.4643,-0.00249605 20.6236,-3.43456 27.4902,-8.01606 5.72968,-5.72968 9.16424,-12.5938 9.16424,-21.7555l0 -30.9061c0,-11.4618 -5.72968,-20.6211 -16.0309,-27.4877 -11.4594,-6.86787 -26.3345,-10.2937 -46.9432,-10.2937l-4.58149 -0.00249605 -67.558 0 0 207.228 51.5296 0 0 -89.2973c3.43456,0 5.71595,0.00249605 6.86413,0.00249605 1.14818,-0.00249605 2.28638,0 3.43206,0 2.29761,-0.00249605 3.43456,0 5.73217,0 5.71595,-0.00249605 10.2962,2.28388 13.7395,3.43206 3.43581,3.43581 5.71595,6.86413 5.71595,12.5938l0 64.1235c0,2.28388 0,4.56777 1.15193,5.71595 1.14818,1.15193 3.43456,2.30011 5.72593,3.43206l52.6678 -0.00249605c-2.28638,-1.12946 -3.43456,-2.27764 -4.58149,-4.57775zm-58.3938 -133.963c0,5.72968 -2.28638,9.16424 -5.72968,11.4618 -3.43456,1.13445 -6.86663,2.28264 -10.2962,2.28264 -2.29761,1.14943 -4.58399,1.14943 -8.01606,1.14943 -2.29636,0 -3.42957,0 -4.57775,0 -1.15193,0 -2.30011,-1.14943 -3.43456,-1.14943l0 -45.8c1.13445,0 2.28264,0.00374407 3.43456,0.00374407 1.14818,-0.00374407 2.28139,0 4.57775,0 3.43206,-0.00374407 5.71844,0 8.01606,0 3.42957,1.14818 6.86163,2.28014 10.2962,3.43206 3.4433,2.28264 5.72968,5.72843 5.72968,10.3124l0 18.3073z"/>
  <path fill="#1F1A17" d="M847.294 1361.38c-1.15193,-1.1357 -2.30011,-3.42957 -3.44579,-4.56777l0 -61.8371c0,-12.5938 -2.28388,-20.6099 -9.15176,-27.474 -6.87786,-5.73217 -17.1741,-9.16174 -30.916,-10.3099 11.4444,-0.00249605 20.6086,-3.43456 27.474,-8.01606 5.72843,-5.72968 9.158,-12.5938 9.158,-21.7555l0 -30.9061c0,-11.4618 -5.71595,-20.6211 -16.0234,-27.4877 -11.4444,-6.86787 -27.4765,-10.2937 -46.9482,-10.2937l-4.58149 -0.00249605 -67.553 0 0 207.228 51.5272 0 0 -89.2973c2.29512,0 4.58149,0.00249605 6.86163,0.00249605 1.14943,-0.00249605 2.30011,0 3.44954,0 2.28513,-0.00249605 3.42832,0 5.7147,0 5.72968,-0.00249605 10.3112,2.28388 12.5938,3.43206 4.58149,3.43581 6.8816,6.86413 6.8816,12.5938l0 64.1235c0,2.28388 0,4.56777 1.13445,5.71595 1.14943,1.15193 3.4433,2.30011 5.72968,3.43206l52.6728 -0.00249605c-2.29512,-1.12946 -3.4433,-2.27764 -4.57775,-4.57775zm-59.5407 -133.963c0,5.72968 -1.14818,9.16424 -4.58274,11.4618 -3.43206,1.13445 -6.86163,2.28264 -10.3112,2.28264 -2.28638,1.14943 -4.58025,1.14943 -8.01481,1.14943 -2.28139,0 -3.42957,0 -4.579,0 -1.13695,0 -2.28638,-1.14943 -3.43206,-1.14943l0 -45.8c1.14569,0 2.29512,0.00374407 3.43206,0.00374407 1.14943,-0.00374407 2.29761,0 4.579,0 2.30011,-0.00374407 5.72843,0 8.01481,0 3.44954,1.14818 6.87911,2.28014 9.16424,3.43206 4.58149,2.28264 5.72968,5.72843 5.72968,10.3124l0 18.3073z"/>
  <path fill="#1F1A17" d="M1005.3 1155.28c-26.3358,0 -44.648,3.45203 -54.9617,11.4643 -10.2962,8.00732 -14.8764,21.7418 -14.8764,42.3654l0 107.621c0,19.4592 4.58025,34.3531 14.8764,42.3679 10.3137,6.85914 28.6234,11.4456 54.9617,11.4456 26.3395,-0.00249605 43.5148,-4.58399 53.811,-11.4456 10.3099,-8.01855 14.8939,-22.9087 14.8939,-42.3679l0 -107.621c0,-20.6261 -4.58399,-34.3543 -14.8939,-42.3654 -10.2962,-8.01481 -27.474,-11.4618 -53.811,-11.4643zm17.1778 158.016c0,8.01606 -2.28638,13.7482 -4.58025,16.0284 -2.28388,3.43581 -6.86787,4.58399 -12.5976,4.58399l-1.14818 -0.00249605c-5.71345,0 -9.15051,-1.14569 -12.5938,-4.58149 -2.28638,-2.28264 -3.43456,-8.00982 -3.43456,-13.7445l0 -105.338c0,-6.86413 1.14818,-11.4444 4.58274,-14.8764 2.29761,-2.29761 6.86163,-3.43581 12.5938,-3.43581 5.73342,-0.00249605 10.3112,1.1382 12.5976,3.43581 3.42957,2.28014 4.57775,8.01481 4.57775,14.8764l0.00249605 103.054z"/>
  <path fill="#1F1A17" d="M1252.6 1307.57l0 2.29761c0,10.2999 -1.13445,17.1778 -3.43456,20.6074 -2.27889,2.28638 -6.86163,3.43456 -12.5938,3.43456 -5.71096,-0.00249605 -10.2974,-1.14818 -12.5913,-3.43456 -1.14569,-3.43206 -2.28638,-10.3074 -2.28638,-20.6049l0 -151.139 -52.6791 0 0 163.728c0,17.1803 4.58649,29.7766 14.8939,36.6407 10.2999,8.00732 27.4777,11.4456 52.6629,11.4456 25.1901,-0.00249605 42.3679,-3.43456 52.6778,-11.4456 10.2987,-6.86413 14.8802,-19.4604 14.8802,-36.6382l0.00249605 -163.731 -51.5321 0 0 148.839z"/>
  <path fill="#1F1A17" d="M1528.56 1327.04c-6.8816,-24.0557 -14.8977,-50.379 -24.0619,-79.0149 -9.14177,-27.474 -19.4554,-57.2406 -29.7541,-89.2948l-72.132 -0.00249605 0 207.228 48.0814 0 -2.28388 -167.164c8.01106,27.4777 17.1753,54.963 26.3345,82.437 8.01855,28.6359 18.3085,56.1099 27.474,84.7296l73.2852 -0.00249605 0 -207.228 -48.0951 0 1.15193 168.312z"/>
  <path fill="#1F1A17" d="M1796.48 1169.02c-10.2962,-6.86787 -28.6259,-9.16424 -53.8135,-9.16424 -1.14818,-1.13196 -2.30011,-1.12946 -4.58025,-1.12946l-64.1235 -0.00249605 0 207.228 64.1235 0c2.28388,0 3.42957,0.00249605 4.58025,0.00249605 25.1876,-0.00249605 43.5148,-3.43206 53.8135,-9.14801 10.3137,-5.73217 16.0259,-17.1741 16.0259,-32.068l0 -124.801c0,-14.8914 -5.71595,-25.1876 -16.0259,-30.9173zm-37.7839 145.422c0,5.71844 -1.14943,9.14676 -3.43581,11.4469 -2.27764,2.28139 -6.86413,3.42957 -12.5938,3.42957l-1.14818 -0.00249605c-1.14818,0 -2.28388,0.00249605 -5.71844,0.00249605 -3.4408,-0.00249605 -6.87786,0 -9.15925,-1.14818l0 -131.663c1.1357,0 2.28139,0.00249605 4.58149,0.00249605 1.13695,-0.00249605 4.57775,0 6.86413,0 2.28388,-0.00249605 3.42957,0 4.58025,0 5.73217,-0.00249605 9.16424,1.12946 12.5938,2.28139 2.29012,2.28264 3.43581,5.72843 3.43581,11.4444l0 104.206z"/>
 </g>
</svg>
