<?xml version="1.0" encoding="UTF-8" standalone="no"?>
<!-- Created with Inkscape (http://www.inkscape.org/) -->
<svg
   xmlns:dc="http://purl.org/dc/elements/1.1/"
   xmlns:cc="http://web.resource.org/cc/"
   xmlns:rdf="http://www.w3.org/1999/02/22-rdf-syntax-ns#"
   xmlns:svg="http://www.w3.org/2000/svg"
   xmlns="http://www.w3.org/2000/svg"
   xmlns:sodipodi="http://sodipodi.sourceforge.net/DTD/sodipodi-0.dtd"
   xmlns:inkscape="http://www.inkscape.org/namespaces/inkscape"
   width="487.30597"
   height="214.85039"
   id="svg28179"
   sodipodi:version="0.32"
   inkscape:version="0.44"
   version="1.0"
   sodipodi:docbase="E:\Logos"
   sodipodi:docname="Dolby TrueHD Logo.svg">
  <defs
     id="defs28181">
    <clipPath
       id="clp5"
       clip-rule="nonzero">
<path
   d="M -0.18,774 L 567.18,774 L 567.18,0 L -0.18,0 L -0.18,774 z "
   id="path28002" />

</clipPath>
  </defs>
  <sodipodi:namedview
     id="base"
     pagecolor="#ffffff"
     bordercolor="#666666"
     borderopacity="1.0"
     inkscape:pageopacity="0.0"
     inkscape:pageshadow="2"
     inkscape:zoom="0.35"
     inkscape:cx="350"
     inkscape:cy="520"
     inkscape:document-units="px"
     inkscape:current-layer="layer1"
     inkscape:window-width="925"
     inkscape:window-height="573"
     inkscape:window-x="107"
     inkscape:window-y="301" />
  <metadata
     id="metadata28184">
    <rdf:RDF>
      <cc:Work
         rdf:about="">
        <dc:format>image/svg+xml</dc:format>
        <dc:type
           rdf:resource="http://purl.org/dc/dcmitype/StillImage" />
      </cc:Work>
    </rdf:RDF>
  </metadata>
  <g
     inkscape:label="Ebene 1"
     inkscape:groupmode="layer"
     id="layer1"
     transform="translate(-100.6322,-473.8638)">
    <g
       style="fill:none;stroke:none"
       clip-path="url(#clp5)"
       id="g28004"
       transform="matrix(5.138732,0,0,-5.138732,-2160.564,4266.248)">
<path
   style="fill:#0067b3;fill-rule:nonzero;stroke:none"
   d="M 444.19,709.29 L 440.08,709.29 L 440.08,712.07 L 452.81,712.07 L 452.81,709.29 L 448.7,709.29 L 448.7,701.22 L 444.19,701.22 L 444.19,709.29 z "
   class="ps01"
   id="path28006" />

<path
   style="fill:#0067b3;fill-rule:nonzero;stroke:none"
   d="M 454.99,712.07 L 463.59,712.07 C 466.15,712.07 468.37,711.02 468.37,708.97 C 468.37,707.84 467.67,706.66 466.17,706.25 C 467.4,705.9 468.17,704.89 468.33,703.54 C 468.39,703.01 468.41,701.72 468.82,701.22 L 464.31,701.22 C 464.08,701.76 464,702.32 463.94,702.89 C 463.81,703.92 463.69,705 461.9,705 L 459.5,705 L 459.5,701.22 L 454.99,701.22 L 454.99,712.07 M 459.5,707.33 L 461.86,707.33 C 462.7,707.33 463.85,707.43 463.85,708.41 C 463.85,709.09 463.34,709.49 461.62,709.49 L 459.5,709.49 L 459.5,707.33"
   class="ps01"
   id="path28008" />

<path
   style="fill:#0067b3;fill-rule:nonzero;stroke:none"
   d="M 484.01,705.41 C 484.01,702.4 481.82,700.96 477.34,700.96 C 472.87,700.96 470.65,702.4 470.65,705.41 L 470.65,712.07 L 475.16,712.07 L 475.16,706.16 C 475.16,705.05 475.16,703.66 477.36,703.66 C 479.49,703.66 479.49,705.05 479.49,706.16 L 479.49,712.07 L 484.01,712.07 L 484.01,705.41"
   class="ps01"
   id="path28010" />

<path
   style="fill:#0067b3;fill-rule:nonzero;stroke:none"
   d="M 486.8,712.07 L 498.23,712.07 L 498.23,709.29 L 491.32,709.29 L 491.32,707.94 L 498.24,707.94 L 498.24,705.35 L 491.32,705.35 L 491.32,704 L 498.21,704 L 498.21,701.22 L 486.8,701.22 L 486.8,712.07 z "
   class="ps01"
   id="path28012" />

<path
   style="fill:black;fill-rule:nonzero;stroke:none"
   d="M 533.28,738 C 533.55,738 533.81,737.93 534.07,737.79 C 534.31,737.66 534.51,737.46 534.65,737.21 C 534.79,736.95 534.86,736.69 534.86,736.41 C 534.86,736.14 534.79,735.87 534.66,735.62 C 534.51,735.37 534.32,735.18 534.07,735.04 C 533.82,734.9 533.56,734.83 533.28,734.83 C 533,734.83 532.75,734.9 532.49,735.04 C 532.24,735.18 532.04,735.37 531.91,735.62 C 531.77,735.87 531.7,736.14 531.7,736.41 C 531.7,736.69 531.77,736.95 531.91,737.21 C 532.05,737.46 532.25,737.66 532.5,737.79 C 532.75,737.93 533.01,738 533.28,738 M 533.28,737.69 C 533.07,737.69 532.85,737.63 532.65,737.52 C 532.45,737.41 532.3,737.26 532.18,737.05 C 532.07,736.85 532.01,736.63 532.01,736.41 C 532.01,736.19 532.07,735.98 532.18,735.78 C 532.29,735.58 532.45,735.42 532.65,735.31 C 532.85,735.2 533.06,735.14 533.28,735.14 C 533.51,735.14 533.71,735.2 533.91,735.31 C 534.11,735.42 534.27,735.58 534.39,735.78 C 534.5,735.98 534.55,736.19 534.55,736.41 C 534.55,736.63 534.5,736.85 534.39,737.05 C 534.26,737.26 534.11,737.41 533.91,737.52 C 533.71,737.63 533.5,737.69 533.28,737.69 M 532.56,735.57 L 532.56,737.24 L 532.9,737.24 C 533.23,737.24 533.41,737.24 533.44,737.24 C 533.55,737.23 533.64,737.21 533.7,737.17 C 533.77,737.14 533.82,737.08 533.86,737.01 C 533.9,736.94 533.92,736.85 533.92,736.77 C 533.92,736.65 533.88,736.54 533.8,736.46 C 533.73,736.37 533.62,736.32 533.48,736.3 C 533.52,736.28 533.56,736.26 533.59,736.24 C 533.62,736.22 533.66,736.17 533.7,736.11 C 533.71,736.1 533.76,736.02 533.83,735.91 L 534.02,735.57 L 533.6,735.57 L 533.47,735.83 C 533.37,736.02 533.29,736.13 533.23,736.18 C 533.16,736.23 533.09,736.25 532.99,736.25 L 532.91,736.25 L 532.91,735.57 L 532.56,735.57 z M 532.91,736.52 L 533.04,736.52 C 533.25,736.52 533.36,736.52 533.42,736.54 C 533.45,736.56 533.5,736.58 533.52,736.62 C 533.55,736.66 533.56,736.71 533.56,736.75 C 533.56,736.79 533.55,736.84 533.52,736.88 C 533.5,736.91 533.46,736.94 533.42,736.95 C 533.36,736.97 533.24,736.98 533.04,736.98 L 532.91,736.98 L 532.91,736.52"
   class="ps02"
   id="path28014" />

<path
   style="fill:black;fill-rule:nonzero;stroke:none"
   d="M 453.07,720.53 L 440.03,720.53 L 440.03,737.96 L 453.07,737.96 L 453.07,720.53 z M 450.93,729.21 C 450.93,731.02 450.39,732.57 449.31,733.85 C 448.24,735.12 446.94,735.76 445.44,735.76 L 442.75,735.76 L 442.75,722.68 L 445.44,722.68 C 446.94,722.68 448.24,723.32 449.31,724.58 C 450.39,725.84 450.93,727.39 450.93,729.21 M 467.59,720.53 L 454.5,720.53 L 454.5,737.96 L 467.59,737.96 L 467.59,720.53 z M 464.83,722.68 L 464.83,735.77 L 462.11,735.77 C 460.62,735.77 459.35,735.13 458.29,733.85 C 457.23,732.57 456.69,731.03 456.69,729.21 C 456.69,727.39 457.23,725.85 458.29,724.58 C 459.35,723.32 460.62,722.68 462.11,722.68 L 464.83,722.68 z M 530.92,720.53 L 471.07,720.53 L 471.07,737.96 L 530.92,737.96 L 530.92,720.53 z M 472.26,721.76 L 529.7,721.76 L 529.7,736.74 L 472.26,736.74 L 472.26,721.76 z M 484.12,728.25 C 484.12,726.73 483.82,725.63 483.24,724.93 C 482.64,724.24 481.62,723.89 480.17,723.89 L 474.23,723.89 L 474.23,734.73 L 479.72,734.73 C 482.66,734.73 484.12,733.32 484.12,730.53 L 484.12,728.25 z M 481.15,728.25 L 481.15,730.53 C 481.15,731.64 480.66,732.21 479.67,732.21 L 477.15,732.21 L 477.15,726.42 L 479.67,726.42 C 480.66,726.42 481.15,727.03 481.15,728.25 M 496.09,727.74 C 496.09,726.19 495.63,725.11 494.71,724.52 C 493.95,724.03 492.75,723.78 491.1,723.78 C 489.45,723.78 488.24,724.03 487.48,724.52 C 486.56,725.11 486.1,726.19 486.1,727.74 L 486.1,730.85 C 486.1,732.4 486.56,733.47 487.48,734.07 C 488.24,734.56 489.45,734.81 491.1,734.81 C 492.75,734.81 493.95,734.56 494.71,734.07 C 495.63,733.47 496.09,732.4 496.09,730.85 L 496.09,727.74 z M 493.13,728.08 L 493.13,730.55 C 493.13,731.31 492.99,731.79 492.7,731.99 C 492.42,732.19 491.89,732.29 491.1,732.29 C 490.31,732.29 489.77,732.19 489.48,731.99 C 489.21,731.79 489.07,731.31 489.07,730.55 L 489.07,728.08 C 489.07,727.32 489.21,726.84 489.48,726.63 C 489.77,726.4 490.31,726.3 491.1,726.3 C 491.89,726.3 492.42,726.4 492.7,726.63 C 492.99,726.84 493.13,727.32 493.13,728.08 M 505.34,723.89 L 497.97,723.89 L 497.97,734.73 L 500.78,734.73 L 500.78,726.42 L 505.34,726.42 L 505.34,723.89 z M 516.87,726.91 C 516.87,725.66 516.56,724.82 515.93,724.39 C 515.47,724.06 514.62,723.89 513.36,723.89 L 507.57,723.89 L 507.57,734.73 L 513.26,734.73 C 514.42,734.73 515.24,734.58 515.73,734.29 C 516.36,733.89 516.68,733.12 516.68,731.96 C 516.68,730.48 516.11,729.63 515,729.44 L 515,729.34 C 516.25,729.27 516.87,728.46 516.87,726.91 M 513.81,731.41 C 513.81,732.04 513.49,732.36 512.87,732.36 L 510.49,732.36 L 510.49,730.43 L 512.52,730.43 C 513.05,730.43 513.39,730.49 513.55,730.6 C 513.72,730.72 513.81,730.99 513.81,731.41 M 514.01,727.36 C 514.01,728.05 513.57,728.4 512.72,728.4 L 510.49,728.4 L 510.49,726.27 L 512.67,726.27 C 513.56,726.27 514.01,726.64 514.01,727.36 M 528.2,734.73 L 524.2,727.71 L 524.2,723.89 L 521.38,723.89 L 521.38,727.71 L 517.52,734.73 L 520.83,734.73 L 522.71,730.58 L 522.85,730.58 L 524.83,734.73 L 528.2,734.73"
   class="ps02"
   id="path28016" />

<path
   style="fill:#0067b3;fill-rule:nonzero;stroke:none"
   d="M 521.46,709.29 L 521.46,704 L 523.49,704 C 526.71,704 527.19,705.69 527.19,706.7 C 527.19,707.39 526.85,709.29 523.11,709.29 L 521.46,709.29 M 530.93,716.97 L 498.21,716.97 L 498.21,712.07 L 503.33,712.07 L 503.33,708.3 L 508.19,708.3 L 508.19,712.07 L 513.38,712.07 L 513.38,701.22 L 508.19,701.22 L 508.19,705.52 L 503.33,705.52 L 503.33,701.22 L 498.21,701.22 L 498.21,696.19 L 530.93,696.19 L 530.93,703.18 C 529.56,701.93 527.18,701.22 523.77,701.22 L 516.27,701.22 L 516.27,712.07 L 524.78,712.07 C 527.76,712.07 529.76,711.32 530.93,710.2 L 530.93,716.97"
   class="ps01"
   id="path28018" />

</g>
  </g>
</svg>
