<?xml version="1.0" encoding="UTF-8" standalone="no"?>
<!-- Created with Inkscape (http://www.inkscape.org/) -->
<svg
   xmlns:svg="http://www.w3.org/2000/svg"
   xmlns="http://www.w3.org/2000/svg"
   version="1.0"
   width="285"
   height="111"
   viewBox="-8.2642 -8.3262 285 111"
   id="svg2"
   xml:space="preserve">
<defs
   id="defs4" />
<path
   d="M 33.1753,75.9072 C 33.1753,74.3418 32.6607,73.7676 31.1382,73.7676 L 24.1978,73.7676 L 24.1978,89.5147 L 31.107,89.5147 C 32.4996,89.5147 33.1754,89.0743 33.1754,87.4141 L 33.1754,75.9072 L 33.1753,75.9072 z M 31.7515,93.3369 L 18.9556,93.3369 L 18.9556,69.9063 L 31.9917,69.9063 C 36.6948,69.9063 38.3862,72.0059 38.3862,75.8292 L 38.3862,86.8243 C 38.3862,91.9521 36.2944,93.3369 31.7515,93.3369"
   id="path239" />
<rect
   width="5.2108998"
   height="23.422899"
   x="43.828602"
   y="69.914101"
   id="rect241" />
<path
   d="M 70.3706,93.3369 L 69.8315,91.748 C 69.0483,92.7626 67.5502,93.746 63.9682,93.746 L 61.396,93.746 C 56.9282,93.746 54.4858,92.3612 54.4858,87.3515 L 54.4858,75.5928 C 54.4858,69.5049 59.06,69.4268 62.2417,69.4268 L 68.3726,69.4268 C 70.7085,69.4268 72.7378,69.875 73.7525,70.4493 L 73.7525,73.4688 L 61.939,73.4688 C 60.5503,73.4688 59.7046,73.7999 59.7046,75.7032 L 59.7046,87.9259 C 59.7046,89.4435 60.6489,89.8136 61.9028,89.8136 L 65.521,89.8136 C 66.5122,89.8136 68.3726,89.4122 69.2183,88.9718 L 69.2183,83.5206 L 64.314,83.5206 L 64.314,80.0763 L 74.2994,80.0763 L 74.2994,93.337 L 70.3706,93.337 L 70.3706,93.3369 z"
   id="path243" />
<rect
   width="5.2188001"
   height="23.422899"
   x="79.902802"
   y="69.914101"
   id="rect245" />
<polygon
   points="100.2817,73.7363 100.2817,93.3369 95.0708,93.3369 95.0708,73.7363 88.0317,73.7363 88.0317,69.9141 107.2544,69.9141 107.2544,73.7363 100.2817,73.7363 "
   id="polygon247" />
<path
   d="M 118.2222,74.2402 L 117.9077,72.8554 L 117.8091,72.8554 L 117.4712,74.2402 L 114.5571,83.3877 L 121.1958,83.3877 L 118.2222,74.2402 z M 124.4478,93.3369 L 122.481,87.3115 L 113.3423,87.3115 L 111.3755,93.3369 L 106.7349,93.3369 L 115.104,69.7099 L 121.2974,69.7099 L 129.772,93.3369 L 124.4478,93.3369 z"
   id="path249" />
<polygon
   points="133.1343,93.3369 133.1343,69.9063 138.353,69.9063 138.353,89.3408 149.1128,89.3408 149.1128,93.3369 133.1343,93.3369 "
   id="polygon251" />
<path
   d="M 175.0054,75.7969 C 175.0054,74.3418 174.1949,73.7364 172.7798,73.7364 L 166.3696,73.7364 L 166.3696,81.9005 L 172.8423,81.9005 C 174.2583,81.9005 175.0054,81.2872 175.0054,79.8321 L 175.0054,75.7969 z M 174.1636,85.7549 L 166.3697,85.7549 L 166.3697,93.3369 L 161.1549,93.3369 L 161.1549,69.8984 L 173.6842,69.8984 C 178.191,69.8984 180.1891,71.5976 180.1891,75.8759 L 180.1891,79.9657 C 180.189,84.0244 178.5522,85.7549 174.1636,85.7549"
   id="path253" />
<polygon
   points="184.436,93.3369 184.436,69.9063 189.6509,69.9063 189.6509,89.3408 200.4175,89.3408 200.4175,93.3369 184.436,93.3369 "
   id="polygon255" />
<path
   d="M 216.8716,93.8164 L 210.6665,93.8164 C 206.2065,93.8164 204.0679,92.456 204.0679,87.4141 L 204.0679,69.8984 L 209.2818,69.8984 L 209.2818,87.752 C 209.2818,89.2471 209.9898,89.75 211.2408,89.75 L 216.8404,89.75 C 218.0836,89.75 218.7916,89.2471 218.7916,87.752 L 218.7916,69.8984 L 223.4312,69.8984 L 223.4312,87.414 C 223.4312,92.4561 221.3394,93.8164 216.8716,93.8164"
   id="path257" />
<path
   d="M 240.3179,93.7461 L 233.5152,93.7461 C 231.9498,93.7461 229.8179,93.4385 228.8433,92.3613 L 228.8433,89.7812 L 239.9488,89.7812 C 240.9713,89.7812 241.4039,89.247 241.4039,88.2871 L 241.4039,85.9902 C 241.4039,84.874 241.0582,84.4336 239.7047,84.2285 L 234.1285,83.458 C 230.2271,82.9072 228.7642,81.791 228.7642,78.4404 L 228.7642,74.8066 C 228.7642,71.4238 230.5738,69.4267 235.2456,69.4267 L 240.688,69.4267 C 242.2456,69.4267 244.479,69.8037 245.3286,70.8261 L 245.3286,73.5009 L 234.8989,73.5009 C 233.8139,73.5009 233.4516,73.8935 233.4516,75.0888 L 233.4516,77.2284 C 233.4516,78.3768 234.1284,78.747 235.1977,78.8807 L 241.6713,79.7293 C 245.0922,80.1697 246.2406,81.2244 246.2406,84.74 L 246.2406,88.492 C 246.2407,92.0156 244.7231,93.7461 240.3179,93.7461"
   id="path259" />
<path
   d="M 267.1147,93.2188 L 267.1147,60.8223 L 0.9985,60.8223 C 0.4443,60.8223 0,60.3818 0,59.8311 C 0,59.2647 0.4443,58.8243 0.9985,58.8243 L 268.1215,58.8243 C 268.3813,58.8243 268.641,58.9347 268.8139,59.1231 C 269.0102,59.3116 269.1127,59.5479 269.1127,59.8311 L 269.1127,93.2188 C 269.1127,93.7774 268.6645,94.2178 268.1215,94.2178 C 267.5718,94.2178 267.1147,93.7773 267.1147,93.2188"
   id="path261" />
<path
   d="M 260.6968,5.4741 L 250.9605,23.1123 L 241.5376,5.4741 L 232.7202,5.4741 C 234.3569,8.4551 245.895,30.1748 245.895,30.1748 L 245.895,44.4853 L 255.3804,44.4853 C 255.3804,42.5468 255.3804,30.2216 255.3804,30.2216 C 255.3804,30.2216 267.3667,8.4784 269.0659,5.474 L 260.6968,5.474 L 260.6968,5.4741 z"
   id="path263" />
<path
   d="M 64.0229,43.5654 L 55.7719,43.5654 C 47.2387,43.5654 40.1088,35.2441 40.1088,24.9599 C 40.1088,14.9638 47.2387,6.5009 55.7719,6.5009 L 64.0229,6.5009 L 64.0229,43.5654 z M 17.1226,43.5654 L 8.8994,43.5654 L 8.8994,6.501 L 17.1225,6.501 C 25.6518,6.501 32.7866,14.9639 32.7866,24.96 C 32.7866,35.2441 25.6519,43.5654 17.1226,43.5654 M 0.3931,50.0547 L 72.5171,50.0547 L 72.5171,0 L 0.3931,0 L 0.3931,50.0547 z"
   id="path265" />
<path
   d="M 158.6851,7.6445 C 155.9947,5.7807 151.4644,4.8017 145.5816,4.8017 C 139.8316,4.8017 135.6558,5.5883 132.4625,7.6689 C 129.1119,9.8154 127.5426,13.4414 127.5426,19.0888 L 127.5426,31.3701 C 127.5426,37.0566 129.1744,40.876 132.4313,42.7832 C 135.0583,44.6113 139.3366,45.4805 145.5817,45.4805 C 151.7477,45.4805 156.153,44.5879 158.6696,42.8301 C 161.9255,40.8086 163.6247,36.8643 163.6247,31.3701 L 163.6247,19.0889 C 163.6245,13.709 161.9644,9.8594 158.6851,7.6445 M 154.7837,30.832 C 154.7837,37.749 152.3774,39.3418 145.5816,39.3418 C 138.8013,39.3418 136.3795,37.749 136.3795,30.832 L 136.3795,19.1436 C 136.3795,12.3956 138.8014,10.9366 145.5816,10.9366 C 152.3775,10.9366 154.7837,12.3956 154.7837,19.1436 L 154.7837,30.832 z"
   id="path267" />
<path
   d="M 106.4126,5.4741 L 86.8677,5.4741 L 86.8677,44.497 L 107.7847,44.497 C 118.0845,44.497 121.9273,40.2939 121.9273,28.9755 L 121.9273,20.3984 C 121.9272,9.6621 117.5776,5.4741 106.4126,5.4741 M 113.189,29.9111 C 113.189,36.7461 109.5386,38.4726 106.4878,38.4726 L 95.6763,38.4726 L 95.6763,11.2002 L 106.4878,11.2002 C 109.5386,11.2002 113.189,12.9229 113.189,19.2773 L 113.189,29.9111 z"
   id="path269" />
<polygon
   points="178.8989,5.4741 170.0894,5.4741 170.0894,44.4932 195.1636,44.4932 195.1636,37.9971 178.8989,37.9971 178.8989,5.4741 "
   id="polygon271" />
<path
   d="M 264.6372,41.0957 L 265.3686,41.0957 L 266.5014,42.9561 L 267.2172,42.9561 L 266.0063,41.0762 C 266.643,40.9971 267.1147,40.6592 267.1147,39.9082 C 267.1147,39.0625 266.6274,38.6855 265.6049,38.6855 L 263.977,38.6855 L 263.977,42.956 L 264.6372,42.956 L 264.6372,41.0957 z M 264.6372,39.2236 L 265.5102,39.2236 C 266.2661,39.2236 266.4545,39.4521 266.4545,39.8535 C 266.4545,40.3291 266.2104,40.5605 265.4008,40.5605 L 264.6371,40.5605 L 264.6371,39.2236 L 264.6372,39.2236 z M 261.6724,40.8125 C 261.6724,42.9561 263.3872,44.5098 265.4165,44.5098 C 267.4302,44.5098 269.144,42.9561 269.144,40.8125 C 269.144,38.6855 267.4301,37.1318 265.4165,37.1318 C 263.3872,37.1318 261.6724,38.6855 261.6724,40.8125 M 268.437,40.8125 C 268.437,42.6182 267.1147,43.9111 265.4165,43.9111 C 263.7017,43.9111 262.3804,42.6181 262.3804,40.8125 C 262.3804,39.0469 263.7017,37.71 265.4165,37.71 C 267.1147,37.71 268.437,39.0469 268.437,40.8125"
   id="path273" />
<path
   d="M 216.7466,38.8184 L 208.7945,38.8184 L 208.7945,38.7793 L 208.7945,11.0898 L 208.7945,11.0664 L 217.4537,11.0664 C 220.3961,11.0664 222.2281,13.4023 222.2281,16.5879 C 222.2281,21.4795 219.8531,21.5977 213.0972,21.8418 L 213.0972,26.3682 C 219.1216,26.3448 223.9663,25.9786 223.9663,32.2237 C 223.9663,35.3623 221.9604,38.8184 216.7466,38.8184 M 221.4185,23.8477 C 228.3394,23.2178 229.8335,19.8204 229.8335,14.9561 C 229.8335,10.6456 228.0171,8.4551 226.0269,7.2247 C 224.3599,6.1817 222.3775,5.4742 218.233,5.4742 L 199.9937,5.4742 L 199.9937,44.4893 L 218.4761,44.4893 C 224.1548,44.4893 226.5152,43.377 227.6236,42.6221 C 229.5035,41.3633 231.9341,38.5869 231.9341,34.1387 C 231.9341,28.8965 230.1167,23.6543 221.4185,23.8477"
   id="path275" />
</svg>