<?xml version="1.0" encoding="UTF-8" standalone="no"?>
<!-- Created with Inkscape (http://www.inkscape.org/) -->
<svg
   xmlns:svg="http://www.w3.org/2000/svg"
   xmlns="http://www.w3.org/2000/svg"
   version="1.0"
   width="282"
   height="105"
   viewBox="-3.3564 -4.7529 282 105"
   id="svg2"
   xml:space="preserve">
<defs
   id="defs4" />
<path
   d="M 132.7168,77.4893 C 132.7168,75.8995 132.1992,75.3047 130.6455,75.3047 L 123.5586,75.3047 L 123.5586,91.3643 L 130.6045,91.3643 C 132.0264,91.3643 132.7168,90.9229 132.7168,89.2442 L 132.7168,77.4893 z M 131.2715,95.2822 L 118.207,95.2822 L 118.207,71.3623 L 131.5078,71.3623 C 136.3096,71.3623 138.0439,73.5059 138.0439,77.417 L 138.0439,88.6338 C 138.0439,93.8691 135.9004,95.2822 131.2715,95.2822"
   id="path239" />
<rect
   width="5.3232002"
   height="23.9277"
   x="143.5928"
   y="71.3545"
   id="rect241" />
<path
   d="M 170.6924,95.2822 L 170.1387,93.6689 C 169.3438,94.6962 167.8262,95.7002 164.1563,95.7002 L 161.5303,95.7002 C 156.9698,95.7002 154.4805,94.2783 154.4805,89.1719 L 154.4805,77.1758 C 154.4805,70.9444 159.1543,70.8721 162.3975,70.8721 L 168.6446,70.8721 C 171.0382,70.8721 173.1094,71.3301 174.1456,71.916 L 174.1456,74.9834 L 162.085,74.9834 C 160.6631,74.9834 159.7959,75.3369 159.7959,77.2803 L 159.7959,89.7578 C 159.7959,91.3154 160.7764,91.7012 162.0527,91.7012 L 165.7539,91.7012 C 166.75,91.7012 168.6445,91.2754 169.5117,90.8262 L 169.5117,85.2617 L 164.5019,85.2617 L 164.5019,81.7441 L 174.6992,81.7441 L 174.6992,95.2822 L 170.6924,95.2822 L 170.6924,95.2822 z"
   id="path243" />
<rect
   width="5.3242002"
   height="23.9277"
   x="180.4238"
   y="71.3545"
   id="rect245" />
<polygon
   points="201.2285,75.2725 201.2285,95.2822 195.9131,95.2822 195.9131,75.2725 188.7188,75.2725 188.7188,71.3545 208.3428,71.3545 208.3428,75.2725 201.2285,75.2725 "
   id="polygon247" />
<path
   d="M 219.5439,75.7949 L 219.2314,74.373 L 219.1191,74.373 L 218.7812,75.7949 L 215.8105,85.1328 L 222.5878,85.1328 L 219.5439,75.7949 z M 225.8955,95.2822 L 223.8887,89.1396 L 214.5576,89.1396 L 212.5664,95.2822 L 207.8291,95.2822 L 216.3564,71.1455 L 222.6835,71.1455 L 231.3231,95.2822 L 225.8955,95.2822 z"
   id="path249" />
<polygon
   points="235.9004,95.2822 235.9004,71.3623 241.2158,71.3623 241.2158,91.2119 252.2168,91.2119 252.2168,95.2822 235.9004,95.2822 "
   id="polygon251" />
<path
   d="M 272.7002,95.1621 L 272.7002,62.0879 L 1.02,62.0879 L 1.02,62.0879 C 0.4419,62.0879 0,61.6309 0,61.0762 C 0,60.4981 0.4419,60.0489 1.02,60.0489 L 273.7197,60.0489 C 273.9765,60.0489 274.25,60.1456 274.4345,60.3702 C 274.6347,60.5382 274.7314,60.7872 274.7314,61.0763 L 274.7392,95.1622 C 274.7392,95.7325 274.2822,96.1895 273.7197,96.1895 C 273.1572,96.1895 272.7002,95.7324 272.7002,95.1621"
   id="path253" />
<path
   d="M 266.1396,5.584 L 256.1914,23.5908 L 246.5801,5.584 L 237.5703,5.584 C 239.2568,8.6358 251.0439,30.793 251.0439,30.793 L 251.0439,45.4112 L 260.7119,45.4112 C 260.7197,43.4395 260.7119,30.8575 260.7119,30.8575 C 260.7119,30.8575 272.957,8.6514 274.6836,5.584 L 266.1396,5.584 z"
   id="path255" />
<path
   d="M 65.3564,44.4717 L 56.9453,44.4717 C 48.2217,44.4717 40.9512,35.9883 40.9512,25.461 C 40.9512,15.2676 48.2217,6.6241 56.9453,6.6241 L 65.3564,6.6241 L 65.3564,44.4717 L 65.3564,44.4717 z M 17.4766,44.4717 L 9.0816,44.4717 L 9.0816,6.624 L 17.4766,6.624 C 26.1846,6.624 33.4795,15.2676 33.4795,25.4609 C 33.4795,35.9883 26.1846,44.4717 17.4766,44.4717 M 0.3975,51.0996 L 74.0284,51.0996 L 74.0284,0 L 0.3975,0 L 0.3975,51.0996 z"
   id="path257" />
<path
   d="M 161.9961,7.8008 C 159.25,5.8897 154.625,4.8975 148.6191,4.8975 C 142.7578,4.8975 138.5019,5.7002 135.2295,7.8164 C 131.8096,10.0166 130.1953,13.71 130.1953,19.4912 L 130.1953,32.0293 C 130.1953,37.8193 131.874,41.7334 135.1894,43.6729 C 137.8671,45.5391 142.2441,46.4268 148.6191,46.4268 C 154.914,46.4268 159.4111,45.5235 161.9804,43.7207 C 165.3046,41.6494 167.039,37.6387 167.039,32.0293 L 167.039,19.4912 C 167.0391,13.9912 165.3525,10.0684 161.9961,7.8008 M 158.0215,31.4717 C 158.0215,38.5332 155.5567,40.1592 148.6192,40.1592 C 141.6973,40.1592 139.2247,38.5332 139.2247,31.4717 L 139.2247,19.54 C 139.2247,12.6504 141.6974,11.1611 148.6192,11.1611 C 155.5567,11.1611 158.0215,12.6504 158.0215,19.54 L 158.0215,31.4717 z"
   id="path259" />
<path
   d="M 108.6279,5.584 L 88.6826,5.584 L 88.6826,45.4307 L 110.0371,45.4307 C 120.5517,45.4307 124.4658,41.1309 124.4658,29.5762 L 124.4658,20.8203 C 124.4658,9.8516 120.0264,5.584 108.6279,5.584 M 115.5537,30.5322 C 115.5537,37.5136 111.8281,39.2724 108.7041,39.2724 L 97.6797,39.2724 L 97.6797,11.4297 L 108.7041,11.4297 C 111.8281,11.4297 115.5537,13.1924 115.5537,19.6846 L 115.5537,30.5322 L 115.5537,30.5322 z"
   id="path261" />
<polygon
   points="182.6328,5.584 173.6396,5.584 173.6396,45.4268 199.2373,45.4268 199.2373,38.7949 182.6328,38.7949 182.6328,5.584 "
   id="polygon263" />
<path
   d="M 270.1543,41.958 L 270.9092,41.958 L 272.0655,43.8574 L 272.8048,43.8574 L 271.5675,41.9219 C 272.2101,41.8418 272.7003,41.5049 272.7003,40.7373 C 272.7003,39.874 272.1944,39.4893 271.1505,39.4893 L 269.4962,39.4893 L 269.4962,43.8575 L 270.1544,43.8575 L 270.1544,41.958 L 270.1543,41.958 z M 270.1543,40.0469 L 271.0537,40.0469 C 271.8252,40.0469 272.0254,40.2715 272.0254,40.6895 C 272.0254,41.167 271.7608,41.3965 270.9492,41.3965 L 270.1543,41.3965 L 270.1543,40.0469 L 270.1543,40.0469 z M 267.1357,41.6533 C 267.1357,43.8574 268.8857,45.4433 270.9658,45.4433 C 273.0127,45.4433 274.7715,43.8574 274.7715,41.6533 C 274.7715,39.4892 273.0127,37.9111 270.9658,37.9111 C 268.8857,37.9111 267.1357,39.4893 267.1357,41.6533 M 274.0488,41.6533 C 274.0488,43.5039 272.6924,44.8242 270.9658,44.8242 C 269.2148,44.8242 267.8662,43.5039 267.8662,41.6533 C 267.8662,39.8506 269.2148,38.501 270.9658,38.501 C 272.6924,38.501 274.0488,39.8506 274.0488,41.6533"
   id="path265" />
<path
   d="M 221.2705,39.626 L 213.1611,39.626 L 213.1611,11.3174 L 213.1611,11.293 L 222.0009,11.293 C 224.996,11.293 226.8593,13.6739 226.8593,16.9219 C 226.8593,21.9248 224.4501,22.0449 217.5527,22.3018 L 217.5527,26.9151 C 223.7041,26.8985 228.6416,26.5176 228.6416,32.9005 C 228.6416,36.0967 226.6025,39.626 221.2705,39.626 M 226.04,24.3408 C 233.1064,23.6992 234.6396,20.2304 234.6396,15.2558 C 234.6396,10.8632 232.7851,8.6357 230.7451,7.3788 C 229.043,6.3065 227.0283,5.5839 222.7959,5.5839 L 204.1592,5.5839 L 204.1592,45.4306 L 223.0371,45.4306 C 228.835,45.4306 231.251,44.2783 232.3672,43.5077 C 234.2949,42.2313 236.7842,39.3886 236.7842,34.8397 C 236.7842,29.4961 234.9209,24.1328 226.04,24.3408"
   id="path267" />
</svg>