<?xml version="1.0" encoding="UTF-8" standalone="no"?>
<!-- Created with Inkscape (http://www.inkscape.org/) -->
<svg
   xmlns:svg="http://www.w3.org/2000/svg"
   xmlns="http://www.w3.org/2000/svg"
   version="1.0"
   width="744.09448"
   height="347.24408"
   id="svg2233">
  <defs
     id="defs2235" />
  <g
     transform="translate(-31.383578,-416.39712)"
     id="layer1">
    <g
       transform="translate(36.559368,120.22576)"
       style="fill:#213bb2;fill-opacity:1"
       id="g2229">
      <path
         d="M 461.65349,313.82833 C 461.65349,313.82833 423.33901,359.30605 416.17584,367.88512 C 377.94459,413.94585 371.11467,426.27316 370.03182,429.52157 C 370.19841,426.27316 368.78245,413.77925 352.45714,367.21882 C 348.12595,354.80821 334.13279,313.82833 334.13279,313.82833 L 73.510824,313.82833 L 64.348614,352.47606 L 132.81498,352.55936 L 148.89047,352.55936 C 192.95217,352.55936 219.77229,370.21734 212.35929,401.70189 C 204.19664,435.93508 165.71549,450.84443 124.81891,450.84443 L 109.49315,450.84443 L 129.40005,366.80234 L 60.933614,366.80234 L 31.781284,489.49209 L 128.98357,489.49209 C 201.94772,489.49209 271.41363,450.92773 283.57429,401.70189 C 285.82321,392.62298 285.57332,370.05075 279.9927,356.55736 C 279.90941,356.05765 279.74288,355.64117 279.24311,354.55839 C 278.99322,354.14191 278.82663,352.14288 279.9927,351.7264 C 280.65907,351.47651 281.82514,352.72595 281.99174,353.05906 C 282.49151,354.55839 282.99129,355.72446 282.99129,355.72446 L 344.79425,530.13879 L 502.13359,352.55936 L 568.76759,352.55936 L 584.84301,352.55936 C 628.82141,352.55936 655.97471,370.21734 648.47842,401.70189 C 640.31577,435.93508 601.66804,450.84443 560.77145,450.84443 L 545.36239,450.84443 L 565.35259,366.80234 L 496.88622,366.80234 L 467.73382,489.49209 L 564.85282,489.49209 C 637.90025,489.49209 707.78258,451.09425 719.52683,401.70189 C 731.27107,352.30947 679.96291,313.82833 606.58229,313.82833 L 461.65349,313.82833"
         style="fill:#213bb2;fill-opacity:1;fill-rule:nonzero;stroke:none"
         id="path31168" />
      <path
         d="M 347.2097,530.88845 C 162.38379,530.88845 12.540744,552.12802 12.540744,578.36507 C 12.540744,604.51889 162.38379,625.75846 347.2097,625.75846 C 532.03559,625.75846 681.87865,604.51889 681.87865,578.36507 C 681.87865,552.12802 532.03559,530.88845 347.2097,530.88845 z M 335.13234,595.10686 C 292.90302,595.10686 258.66984,588.02705 258.66984,579.28132 C 258.66984,570.5356 292.90302,563.45578 335.13234,563.45578 C 377.27829,563.45578 411.51147,570.5356 411.51147,579.28132 C 411.51147,588.02705 377.27829,595.10686 335.13234,595.10686"
         style="fill:#213bb2;fill-opacity:1;fill-rule:nonzero;stroke:none"
         id="path31170" />
    </g>
  </g>
</svg>
