<?xml version="1.0" encoding="UTF-8" standalone="no"?>
<!-- Created with Inkscape (http://www.inkscape.org/) -->
<svg
   xmlns:svg="http://www.w3.org/2000/svg"
   xmlns="http://www.w3.org/2000/svg"
   version="1.0"
   width="134.25"
   height="31"
   id="svg4126">
  <defs
     id="defs4128" />
  <g
     id="layer1">
    <polygon
       points="97.683,18.958 98.875,18.958 83.917,11.458 84.487,12.29 97.683,18.958 "
       id="polygon4099"
       style="fill:#c2ea54" />
    <polygon
       points="97.683,18.958 97.688,18.958 84.481,25.13 83.917,25.958 98.875,18.958 97.683,18.958 "
       id="polygon4101"
       style="fill:#6f7f42" />
    <polygon
       points="84.479,25.131 84.479,12.286 84.487,12.29 83.917,11.458 83.917,25.958 84.481,25.13 84.479,25.131 "
       id="polygon4103"
       style="fill:#c0e65a" />
    <polygon
       points="84.479,12.286 84.479,25.131 84.481,25.13 97.688,18.958 97.683,18.958 84.487,12.29 84.479,12.286 "
       id="polygon4105"
       style="fill:#acd147" />
    <path
       d="M 5.601,11.932 L 9.164,24.144 L 12.407,12.792 C 12.754,11.604 13.011,10.793 13.178,10.359 C 13.345,9.926 13.658,9.512 14.118,9.118 C 14.579,8.725 15.209,8.528 16.01,8.528 C 16.824,8.528 17.462,8.725 17.922,9.118 C 18.383,9.512 18.706,9.939 18.893,10.399 C 19.08,10.86 19.34,11.657 19.674,12.792 L 22.917,24.144 L 26.521,11.932 C 26.761,11.051 26.955,10.414 27.102,10.02 C 27.248,9.626 27.496,9.279 27.843,8.979 C 28.19,8.678 28.69,8.528 29.344,8.528 C 29.998,8.528 30.565,8.755 31.046,9.209 C 31.526,9.663 31.767,10.197 31.767,10.811 C 31.767,11.372 31.56,12.219 31.146,13.353 L 26.682,26.446 C 26.295,27.554 25.994,28.355 25.781,28.848 C 25.567,29.342 25.231,29.783 24.77,30.169 C 24.31,30.556 23.679,30.749 22.878,30.749 C 22.05,30.749 21.399,30.542 20.926,30.129 C 20.453,29.716 20.102,29.208 19.875,28.608 C 19.648,28.007 19.401,27.226 19.134,26.265 L 16.011,15.615 L 12.988,26.265 C 12.588,27.747 12.154,28.865 11.687,29.619 C 11.22,30.373 10.399,30.75 9.225,30.75 C 8.624,30.75 8.114,30.634 7.694,30.4 C 7.273,30.167 6.923,29.833 6.643,29.399 C 6.363,28.965 6.116,28.452 5.902,27.857 C 5.688,27.263 5.522,26.794 5.402,26.446 L 0.977,13.354 C 0.537,12.126 0.316,11.279 0.316,10.812 C 0.316,10.225 0.549,9.698 1.017,9.23 C 1.484,8.763 2.058,8.529 2.739,8.529 C 3.646,8.529 4.26,8.786 4.581,9.3 C 4.902,9.814 5.241,10.691 5.601,11.932 z"
       id="path4109"
       style="fill:#303030" />
    <path
       d="M 50.245,20.98 L 39.555,20.98 C 39.568,22.222 39.818,23.316 40.305,24.263 C 40.792,25.211 41.439,25.925 42.247,26.406 C 43.054,26.886 43.945,27.127 44.919,27.127 C 45.573,27.127 46.17,27.051 46.711,26.897 C 47.252,26.744 47.775,26.503 48.283,26.176 C 48.79,25.85 49.257,25.499 49.684,25.125 C 50.111,24.752 50.665,24.244 51.346,23.604 C 51.626,23.364 52.027,23.244 52.547,23.244 C 53.108,23.244 53.561,23.397 53.908,23.704 C 54.255,24.012 54.429,24.445 54.429,25.006 C 54.429,25.5 54.235,26.077 53.848,26.737 C 53.461,27.398 52.877,28.032 52.097,28.639 C 51.316,29.246 50.335,29.75 49.154,30.151 C 47.973,30.551 46.615,30.751 45.08,30.751 C 41.57,30.751 38.84,29.751 36.892,27.749 C 34.943,25.747 33.969,23.031 33.969,19.601 C 33.969,17.986 34.209,16.488 34.69,15.107 C 35.17,13.725 35.871,12.541 36.792,11.553 C 37.713,10.566 38.847,9.808 40.195,9.281 C 41.543,8.754 43.038,8.49 44.679,8.49 C 46.814,8.49 48.646,8.941 50.175,9.841 C 51.703,10.742 52.847,11.907 53.608,13.335 C 54.369,14.763 54.749,16.218 54.749,17.699 C 54.749,19.074 54.355,19.965 53.568,20.371 C 52.78,20.778 51.672,20.98 50.245,20.98 z M 39.554,17.878 L 49.464,17.878 C 49.33,16.01 48.826,14.612 47.952,13.684 C 47.078,12.757 45.927,12.293 44.499,12.293 C 43.138,12.293 42.02,12.763 41.145,13.705 C 40.271,14.645 39.741,16.036 39.554,17.878 z"
       id="path4111"
       style="fill:#303030" />
    <path
       d="M 63.857,3.524 L 63.857,11.872 C 64.885,10.805 65.932,9.987 67.001,9.42 C 68.068,8.853 69.39,8.569 70.965,8.569 C 72.779,8.569 74.371,8.999 75.739,9.861 C 77.107,10.721 78.168,11.97 78.923,13.604 C 79.677,15.239 80.054,17.178 80.054,19.42 C 80.054,21.075 79.844,22.593 79.423,23.974 C 79.003,25.356 78.393,26.554 77.592,27.568 C 76.791,28.583 75.82,29.367 74.679,29.921 C 73.537,30.475 72.28,30.751 70.905,30.751 C 70.065,30.751 69.274,30.651 68.533,30.451 C 67.793,30.251 67.162,29.987 66.641,29.66 C 66.12,29.334 65.676,28.997 65.31,28.649 C 64.943,28.302 64.459,27.782 63.858,27.087 L 63.858,27.627 C 63.858,28.655 63.611,29.433 63.118,29.96 C 62.624,30.486 61.997,30.75 61.236,30.75 C 60.462,30.75 59.844,30.486 59.384,29.96 C 58.923,29.433 58.694,28.655 58.694,27.627 L 58.694,3.764 C 58.694,2.657 58.917,1.819 59.364,1.252 C 59.811,0.685 60.435,0.401 61.236,0.401 C 62.077,0.401 62.724,0.671 63.178,1.212 C 63.631,1.752 63.857,2.523 63.857,3.524 z M 64.118,19.76 C 64.118,21.936 64.615,23.608 65.609,24.775 C 66.603,25.943 67.908,26.527 69.523,26.527 C 70.897,26.527 72.082,25.93 73.077,24.735 C 74.071,23.541 74.568,21.83 74.568,19.6 C 74.568,18.159 74.361,16.917 73.947,15.876 C 73.534,14.835 72.947,14.031 72.185,13.464 C 71.425,12.897 70.537,12.613 69.523,12.613 C 68.482,12.613 67.554,12.897 66.74,13.464 C 65.927,14.031 65.286,14.852 64.818,15.926 C 64.352,17 64.118,18.278 64.118,19.76 z"
       id="path4113"
       style="fill:#303030" />
    <path
       d="M 121.125,20.04 L 121.125,27.307 C 121.125,28.455 120.865,29.317 120.345,29.89 C 119.825,30.463 119.137,30.75 118.283,30.75 C 117.455,30.75 116.784,30.463 116.27,29.89 C 115.756,29.317 115.499,28.455 115.499,27.307 L 115.499,18.599 C 115.499,17.224 115.452,16.157 115.358,15.396 C 115.265,14.635 115.011,14.012 114.598,13.524 C 114.184,13.037 113.53,12.794 112.635,12.794 C 110.847,12.794 109.669,13.408 109.102,14.636 C 108.535,15.864 108.251,17.626 108.251,19.921 L 108.251,27.308 C 108.251,28.443 107.994,29.3 107.48,29.881 C 106.965,30.461 106.289,30.751 105.448,30.751 C 104.62,30.751 103.943,30.461 103.416,29.881 C 102.889,29.3 102.625,28.443 102.625,27.308 L 102.625,11.672 C 102.625,10.645 102.862,9.864 103.336,9.33 C 103.81,8.796 104.434,8.529 105.208,8.529 C 105.955,8.529 106.579,8.779 107.08,9.279 C 107.58,9.78 107.83,10.47 107.83,11.351 L 107.83,11.872 C 108.778,10.738 109.793,9.904 110.873,9.37 C 111.955,8.836 113.156,8.569 114.477,8.569 C 115.852,8.569 117.033,8.843 118.021,9.39 C 119.008,9.937 119.823,10.765 120.463,11.872 C 121.384,10.751 122.371,9.92 123.426,9.38 C 124.48,8.839 125.649,8.569 126.93,8.569 C 128.424,8.569 129.712,8.863 130.793,9.45 C 131.874,10.037 132.682,10.878 133.215,11.972 C 133.683,12.96 133.916,14.514 133.916,16.637 L 133.916,27.307 C 133.916,28.455 133.656,29.317 133.135,29.89 C 132.615,30.463 131.927,30.75 131.073,30.75 C 130.245,30.75 129.568,30.46 129.041,29.88 C 128.514,29.299 128.25,28.442 128.25,27.307 L 128.25,18.119 C 128.25,16.945 128.2,16.004 128.101,15.296 C 128,14.589 127.731,13.995 127.289,13.514 C 126.85,13.034 126.182,12.793 125.287,12.793 C 124.566,12.793 123.883,13.007 123.235,13.434 C 122.588,13.861 122.084,14.435 121.724,15.156 C 121.326,16.076 121.125,17.705 121.125,20.04 z"
       id="path4117"
       style="fill:#303030" />
  </g>
</svg>
